# xmcd CD database file
#
# Track frame offsets:
#	150
#	42627
#	85854
#	139365
#	178682
#	221445
#	274135
#
# Disc length: 4005 seconds
#
# Revision: 0
# Processed by: cddbd v1.5.2PL0 Copyright (c) Steve Scherf et al.
# Submitted via: CDex 1.51
#
DISCID=690fa307
DTITLE=Francescio Mondragon Rio - Ancient Civilisations
DYEAR=1997
DGENRE=Jazz
TTITLE0=Aztlan
TTITLE1=Ancient civilisations
TTITLE2=Invisible ballad
TTITLE3=Ishtar
TTITLE4=Scarvetius
TTITLE5=Catal huyuk
TTITLE6=Tiahuanaco ( John's Ballad )
EXTD=YEAR: 1997
EXTT0=
EXTT1=
EXTT2=
EXTT3=
EXTT4=
EXTT5=
EXTT6=
PLAYORDER=
